<?xml version="1.0" encoding="utf-8"?>
<!-- Generator: Adobe Illustrator 18.1.1, SVG Export Plug-In . SVG Version: 6.00 Build 0)  -->
<svg version="1.1" id="Layer_1" xmlns="http://www.w3.org/2000/svg" xmlns:xlink="http://www.w3.org/1999/xlink" x="0px" y="0px"
	 viewBox="139.7 231.9 367.6 301" style="enable-background:new 139.7 231.9 367.6 301;" xml:space="preserve">
<g id="tele-TASK">
	<g>
		<path style="fill:#B00835;" d="M355.7,512.9c7.8-11.7,15-25,20-38.3c6.7-16.7,10.6-33.3,12.8-50c14.4-3.9,28.9-8.9,42.2-15.5
			c-13.3,3.9-26.7,6.1-41.1,7.2c1.1-11.7,0.6-23.3-0.6-35c-1.1,11.7-3.3,23.3-6.7,35c-2.2,0-4.4,0-6.7,0c-21.1,0-41.7-3.3-61.1-9.4
			c3.3-32.2,14.4-63.3,31.7-91.1c11.1,2.8,23.3,4.4,35,4.4c18.3,0,35.5-3.3,51.6-10c-0.6-0.6-1.1-1.1-1.1-1.7
			c-8.3,1.7-16.7,2.2-25,2.2c-33.9,0-65.5-11.7-90-30.5c6.1-5.6,12.2-10.6,18.9-15.5c-7.8,3.9-15.5,7.8-22.8,12.8
			c-4.4-3.9-8.9-8.3-13.3-12.8c11.1-2.8,23.3-4.4,35.5-4.4c53.9,0,98.3,31.7,121.1,75.5c-17.8-61.6-76.6-103.9-143.3-103.9
			c-83.3,0-151.1,67.8-151.1,151.1c-0.6,82.7,66.6,149.9,150.5,149.9c50,0,82.7-17.2,110-54.4C402.4,500.1,386.2,508.5,355.7,512.9z
			 M251.9,466.8c-3.3-18.9-3.9-37.8-1.7-56.1c11.7,5.6,23.9,10,36.7,13.3c-5,27.2-4.4,55.5,1.7,82.7c-11.1-3.9-21.7-9.4-31.1-15.5
			C255.7,483.5,253.5,475.1,251.9,466.8z M379,426.3c-1.1,2.8-2.2,5.6-2.8,8.3c-11.1,27.8-27.2,51.6-47.2,71.6
			c-10.6-25-15.5-51.1-15.5-77.2c8.3,1.1,16.7,1.7,25,1.7C352.4,430.7,365.7,429,379,426.3z M292.9,399.1
			c-13.3-5.6-25.5-12.8-36.7-21.1c8.3-30.5,23.9-58.9,45-83.3c12.2,8.9,26.1,15.5,40.5,20C319.6,339.1,302.9,368,292.9,399.1z
			 M276.8,271.9c5,6.1,11.1,12.2,17.2,17.2c-25,19.4-45,43.3-59.4,70.5c-7.8-7.8-15-16.1-21.7-25
			C226.3,306.9,248.5,284.7,276.8,271.9z M201.3,386.8c0-3.3,0-6.1,0.6-9.4c6.1,5.6,12.2,10.6,18.9,15.5
			c-4.4,13.9-7.2,28.9-8.9,43.9C205.2,421.8,201.3,404.6,201.3,386.8z"/>
		<path style="fill:#FAA61A;" d="M292.4,461.8c-85.5-32.8-141.6-97.2-136.1-151.1l10.6,3.3l-1.1-41.7l-26.1,32.8l10,3.3
			c-1.1,2.2-1.7,4.4-2.8,6.7c-20.5,58.3,41.7,132.7,138.8,166.6c97.2,33.9,192.2,14.4,212.1-43.9c1.1-2.2,1.7-5,2.2-7.2
			C475.1,482.9,384,496.8,292.4,461.8z M435.1,291.9c7.2,10,12.8,20.5,17.2,32.2c36.7,32.8,56.1,71.6,48.3,106.1
			c0.6-1.7,1.7-3.3,2.2-5C519,383.5,490.1,331.3,435.1,291.9z"/>
	</g>
</g>
</svg>
